<svg xmlns="http://www.w3.org/2000/svg" viewBox="0 0 167.17 167.17"><defs><style>circle {fill: #f00; }.cls-1{fill:#fff;}</style></defs><title>Fichier 62</title><g id="Calque_2" data-name="Calque 2"><g id="Layer_1" data-name="Layer 1"><circle cx="83.59" cy="83.59" r="83.59"/><path class="cls-1" d="M65.87,84.3a3.27,3.27,0,0,0,1.66,2.47l44.62,25.13A3.32,3.32,0,0,0,117.1,109V58.75A3.28,3.28,0,0,0,115.61,56h0l-.15-.08-.06,0-.33-.17h0a3.25,3.25,0,0,0-2.92.15L67.53,81A3.3,3.3,0,0,0,65.87,84.3Z"/><path class="cls-1" d="M58.11,52.19l-.08,0L57.5,52h0a6.12,6.12,0,0,0-7.37,6v50.47a1.28,1.28,0,0,0,0,.19,6.13,6.13,0,0,0,2.44,4.73h0a6.15,6.15,0,0,0,9.86-4.92V58.06A6.15,6.15,0,0,0,59,52.58h0A5.83,5.83,0,0,0,58.11,52.19Z"/></g></g></svg>