<svg xmlns="http://www.w3.org/2000/svg" viewBox="0 0 167.17 167.17"><defs><style>circle {fill: #f00; }.cls-1{fill:#fff;}</style></defs><title>Fichier 63</title><g id="Calque_2" data-name="Calque 2"><g id="Layer_1" data-name="Layer 1"><circle cx="83.59" cy="83.59" r="83.59"/><path class="cls-1" d="M50.08,108.42a3.81,3.81,0,0,0,.05.59l0,.12a3.8,3.8,0,0,0,.15.51s0,0,0,0a5.12,5.12,0,0,0,.27.52l0,0a3.39,3.39,0,0,0,.33.42l0,0a3.26,3.26,0,0,0,.93.69h0a3.26,3.26,0,0,0,3.09-.08L99.64,86.19a3.33,3.33,0,0,0,0-5.79l-44.38-25h0L55,55.27a3.31,3.31,0,0,0-4.94,2.89v50.25h0Z"/><path class="cls-1" d="M112.79,52.77h0a5.73,5.73,0,0,0-.56-.14h0a6.13,6.13,0,0,0-7.39,6V109.1h0v0c0,.19,0,.38,0,.56s0,.16,0,.25,0,.21,0,.32a2.8,2.8,0,0,0,.06.28,2.5,2.5,0,0,0,.07.26c0,.1.06.2.09.3l.08.21a3.05,3.05,0,0,0,.13.32c0,.06.05.11.07.16l.18.35,0,0a6.25,6.25,0,0,0,1.67,1.88h0a6.18,6.18,0,0,0,3.68,1.22h0a6.16,6.16,0,0,0,6.16-6.16V58.65a6.16,6.16,0,0,0-3.36-5.48h.05A5.52,5.52,0,0,0,112.79,52.77Z"/></g></g></svg>