<svg xmlns="http://www.w3.org/2000/svg" viewBox="0 0 84.23 84.24"><defs><style>path {fill: #f00; }</style></defs><title>Fichier 39</title><g id="Calque_2" data-name="Calque 2"><g id="Layer_1" data-name="Layer 1"><path d="M50.89,1l.49.08A41.84,41.84,0,0,0,40.65,0,4.67,4.67,0,1,0,41,9.37a33.51,33.51,0,0,1,10,1.17l.11,0A32.77,32.77,0,0,1,65.31,65.3a32.52,32.52,0,0,1-23.18,9.6A33,33,0,0,1,36,74.33l.25,0A32.79,32.79,0,0,1,14.68,24.21l3.8,3.8a1.43,1.43,0,0,0,2.38-.62l5.89-21.1a1.4,1.4,0,0,0-.51-1.5h0l-.1-.06-.08,0a1.39,1.39,0,0,0-.28-.12h0a1.36,1.36,0,0,0-.75,0l-21.1,5.9a1.37,1.37,0,0,0-.65.39,1.42,1.42,0,0,0,0,2L8,17.49a39.78,39.78,0,0,0-2.32,3.58,42.13,42.13,0,0,0,6.7,50.85c.34.34.69.66,1,1l.17.16c.32.3.65.59,1,.87l.41.35c.32.28.64.55,1,.81l.33.25c.66.52,1.32,1,2,1.48l.35.23c.33.23.66.44,1,.65l.52.33c.33.21.67.41,1,.6l.48.27c.66.36,1.32.71,2,1l.44.22,1,.46.6.27,1,.42.59.22c.64.24,1.29.47,1.95.68l.55.18,1,.29.67.19,1,.25.68.15a42.61,42.61,0,0,0,8.93,1A42.1,42.1,0,0,0,50.89,1Z"/></g></g></svg>