<svg xmlns="http://www.w3.org/2000/svg" viewBox="0 0 167.17 167.17"><defs><style>circle {fill: #f00; }.cls-1{fill:#fff;}</style></defs><title>Fichier 65</title><g id="Calque_2" data-name="Calque 2"><g id="Layer_1" data-name="Layer 1"><circle cx="83.59" cy="83.59" r="83.59"/><path class="cls-1" d="M128.4,80.64,91.94,57.41h0l-.21-.13c-1.82-1.15-4,.35-4,2.73h0l0,6.12.09,17.43a3.15,3.15,0,0,0-1.4-2.7L50,57.64h0l-.21-.13c-1.81-1.16-4,.35-4,2.73h0L46,107.34a3.43,3.43,0,0,0,.05.56.36.36,0,0,1,0,.1c0,.17.08.33.13.48v0a3.51,3.51,0,0,0,.22.48l0,0a3.51,3.51,0,0,0,.27.4l0,0a3.09,3.09,0,0,0,.77.64h0a2.38,2.38,0,0,0,2.54-.08L86.47,86.29a3.17,3.17,0,0,0,1.37-2.72L88,107.1h0a3.33,3.33,0,0,0,0,.56s0,.07,0,.11a2.85,2.85,0,0,0,.13.48v0a4.31,4.31,0,0,0,.22.49l0,0a4,4,0,0,0,.28.4l0,0a2.77,2.77,0,0,0,.77.64h0A2.37,2.37,0,0,0,92,109.8l36.4-23.74A3.35,3.35,0,0,0,128.4,80.64Z"/></g></g></svg>