<svg xmlns="http://www.w3.org/2000/svg" viewBox="0 0 167.17 167.17"><defs><style>circle {fill: #f00; }.cls-1{fill:#fff;}</style></defs><title>Fichier 67</title><g id="Calque_2" data-name="Calque 2"><g id="Layer_1" data-name="Layer 1"><circle cx="83.59" cy="83.59" r="83.59" transform="translate(-12.02 153.1) rotate(-81.02)"/><path class="cls-1" d="M54.2,106.67c0,.13,0,.25,0,.37s0,.33.08.49,0,.24.07.36.08.34.13.51,0,.2.08.3.17.48.27.72.09.21.13.31.14.3.22.44a3.07,3.07,0,0,0,.17.31c.08.15.17.29.26.44l.17.25a7.11,7.11,0,0,0,.46.62c0,.07.12.14.17.2s.25.28.38.41l.22.23.39.35.23.19a5.73,5.73,0,0,0,.63.47l.16.1a5.84,5.84,0,0,0,.53.33l.28.15.46.22.31.14.11,0,0,0A9.42,9.42,0,0,0,73,105.84V61.92a9.4,9.4,0,0,0-4.5-8h0l-.31-.18L68,53.6l-.7-.34-.21-.08L66.52,53l-.19-.06c-.26-.08-.53-.15-.8-.21l-.15,0c-.23,0-.46-.08-.7-.1l-.23,0c-.28,0-.57,0-.85,0h0A9.37,9.37,0,0,0,58.41,54l-.09.06-.09.07a9.41,9.41,0,0,0-4.07,7.75v43.92c0,.07,0,.13,0,.2S54.18,106.47,54.2,106.67Z"/><path class="cls-1" d="M94.19,106.71a2.51,2.51,0,0,0,0,.27c0,.2,0,.4.08.59l.06.29c0,.22.1.43.17.64s0,.12,0,.17c.09.27.18.52.29.77a1.6,1.6,0,0,0,.1.23c.08.18.16.36.25.53l.14.26c.1.17.2.34.31.5a1.37,1.37,0,0,0,.13.2c.15.22.31.43.47.64l.15.17c.13.15.26.3.4.44l.22.21c.12.13.26.24.39.36l.23.2.58.43.25.16c.16.1.31.2.48.29l.32.17.4.2.36.15.09,0h0a9.47,9.47,0,0,0,3.46.66h0a9.44,9.44,0,0,0,9.44-9.43V61.92a9.44,9.44,0,0,0-4.5-8l0,0-.35-.21-.17-.09a6.59,6.59,0,0,0-.71-.34l-.22-.09-.58-.22-.21-.07-.8-.2-.15,0c-.23,0-.46-.08-.7-.1l-.22,0c-.29,0-.57,0-.87,0h0a9.43,9.43,0,0,0-9.43,9.43v44C94.15,106.15,94.17,106.43,94.19,106.71Z"/></g></g></svg>