<svg xmlns="http://www.w3.org/2000/svg" viewBox="0 0 167.17 167.17"><defs><style>circle {fill: #f00; }.cls-1{fill:#fff;}</style></defs><title>Fichier 64</title><g id="Calque_2" data-name="Calque 2"><g id="Layer_1" data-name="Layer 1"><circle cx="83.59" cy="83.59" r="83.59"/><path class="cls-1" d="M38.41,84.47a3.14,3.14,0,0,0,1.33,2l.11.07.12.08h0l36.42,23.2c1.82,1.16,4-.35,4-2.73L80.3,83.6v.14a.36.36,0,0,0,0,.1,2.09,2.09,0,0,0,0,.35l0,.15a3.81,3.81,0,0,0,.13.45.77.77,0,0,1,.07.16c0,.11.11.22.17.33l.07.11a2.38,2.38,0,0,0,.31.4l0,0,.1.09.14.13a.94.94,0,0,0,.12.09,1.18,1.18,0,0,0,.18.13l36.65,23.35c1.81,1.16,4-.35,4-2.73l-.25-47.09a3.19,3.19,0,0,0-1.45-2.73l-.06,0-.31-.14-.09,0-.34-.1h-.06a1.75,1.75,0,0,0-.4,0h-.1a1.55,1.55,0,0,0-.31,0l-.13,0-.3.1-.11,0a2,2,0,0,0-.41.21L81.67,80.84l-.14.11-.16.12-.12.12-.12.11s0,0,0,0a2.53,2.53,0,0,0-.31.42l-.06.11a2.42,2.42,0,0,0-.18.36l-.06.15c0,.14-.09.29-.13.45l0,.2,0,.32s0,.08,0,.12L80.17,60a3.31,3.31,0,0,0-.77-2.15h0l0,0a2.13,2.13,0,0,0-.3-.3l0,0a2.83,2.83,0,0,0-.28-.2l-.12-.07-.25-.12-.13,0a1.58,1.58,0,0,0-.31-.09l-.07,0a2.85,2.85,0,0,0-.41,0h-.09a1.73,1.73,0,0,0-.32,0l-.12,0a1.92,1.92,0,0,0-.32.09l-.1,0a3.84,3.84,0,0,0-.4.21L39.71,81.07a2.92,2.92,0,0,0-.84.84A3.53,3.53,0,0,0,38.41,84.47Z"/></g></g></svg>