<svg xmlns="http://www.w3.org/2000/svg" viewBox="0 0 167.17 167.17"><defs><style>circle {fill: #f00; }.cls-1{fill:#fff;}</style></defs><title>Fichier 57</title><g id="Calque_2" data-name="Calque 2"><g id="Layer_1" data-name="Layer 1"><circle cx="83.59" cy="83.59" r="83.59"/><path class="cls-1" d="M54.22,107.35c0,.09,0,.18,0,.28s.05.28.08.43,0,.18.07.27.09.28.13.42l.09.24a4.54,4.54,0,0,0,.21.45.89.89,0,0,0,.08.17,6,6,0,0,0,.36.6h0c.13.18.27.36.41.53l.14.15a3.51,3.51,0,0,0,.33.34,1.54,1.54,0,0,0,.19.17l.32.26.14.12,0,0A6.29,6.29,0,0,0,60.53,113h46.11a6.35,6.35,0,0,0,6.35-6.35V60.53a6.29,6.29,0,0,0-1.22-3.73h0l-.1-.12c-.09-.12-.19-.24-.29-.35l-.16-.18-.34-.33-.15-.14a4.91,4.91,0,0,0-.51-.39l0,0a6,6,0,0,0-.6-.36l-.17-.08a4.54,4.54,0,0,0-.45-.21l-.23-.08-.44-.14-.25-.06-.48-.09-.23,0c-.23,0-.47,0-.72,0H60.53a6.35,6.35,0,0,0-6.35,6.36v46.1s0,.09,0,.13A5.49,5.49,0,0,0,54.22,107.35Z"/></g></g></svg>